<svg width="8" height="10" viewBox="0 0 8 10" fill="none" xmlns="http://www.w3.org/2000/svg">
<path fill-rule="evenodd" clip-rule="evenodd" d="M4.26934 0.793945C3.00236 0.793945 1.97439 1.81964 1.97439 3.08476V4.31156H1.63849C1.11559 4.31156 0.685059 4.73972 0.685059 5.26241V8.83893C0.685059 9.36162 1.11559 9.78978 1.63849 9.78978H6.94669C7.46959 9.78978 7.89805 9.36162 7.89805 8.83893V5.26241C7.89805 4.73972 7.46959 4.31156 6.94669 4.31156H6.56583V3.08476C6.56583 1.81964 5.53631 0.793945 4.26934 0.793945ZM4.26934 1.32311C5.25293 1.32311 6.03667 2.10427 6.03667 3.08476V4.31156H2.50355V3.08476C2.50355 2.10427 3.28574 1.32311 4.26934 1.32311ZM1.63849 4.84073H2.23793H6.30022H6.94669C7.18621 4.84073 7.36889 5.02435 7.36889 5.26241V8.83893C7.36889 9.07699 7.18621 9.26061 6.94669 9.26061H1.63849C1.39897 9.26061 1.21422 9.07699 1.21422 8.83893V5.26241C1.21422 5.02435 1.39897 4.84073 1.63849 4.84073ZM4.29259 5.77814C3.78644 5.77814 3.36862 6.19406 3.36862 6.70004C3.36862 7.11397 3.64817 7.46611 4.02697 7.58061V8.05965C4.02711 8.0944 4.03409 8.12878 4.04751 8.16083C4.06093 8.19287 4.08053 8.22197 4.1052 8.24644C4.12986 8.27091 4.15911 8.29029 4.19126 8.30346C4.22341 8.31663 4.25784 8.32334 4.29259 8.3232C4.3624 8.32293 4.42928 8.29507 4.47865 8.24571C4.52801 8.19634 4.55587 8.12946 4.55614 8.05965V7.58113C4.93527 7.46712 5.2145 7.11454 5.2145 6.70004C5.2145 6.19406 4.79874 5.77814 4.29259 5.77814ZM4.29259 6.3073C4.51339 6.30731 4.68533 6.48067 4.68533 6.70004C4.68533 6.91942 4.51339 7.09072 4.29259 7.09072C4.07179 7.09072 3.89778 6.91942 3.89778 6.70004C3.89778 6.48067 4.07179 6.30731 4.29259 6.3073Z" fill="#DC143C"/>
</svg>
